HIERARCHY
ROOT pelvis
{
  OFFSET 0 100 0
  CHANNELS 6 Xposition Yposition Zposition Zrotation Xrotation Yrotation
  JOINT pelvis_right_femur
  {
    OFFSET -10.78128 -3.44521 -0.5502486
    CHANNELS 3 Zrotation Xrotation Yrotation
    JOINT right_femur_tibia
    {
      OFFSET -0.8047443 -44.0398 -0.1307829
      CHANNELS 3 Zrotation Xrotation Yrotation
      JOINT right_tibia_foot
      {
        OFFSET 3.006224 -47.83518 -5
        CHANNELS 3 Zrotation Xrotation Yrotation
        End Site
        {
          OFFSET 0 -5 15
        }
      }
    }
  }
  JOINT pelvis_left_femur
  {
    OFFSET 10.78128 -3.44521 -0.5502486
    CHANNELS 3 Zrotation Xrotation Yrotation
    JOINT left_femur_tibia
    {
      OFFSET 0.8047443 -44.0398 -0.1307829
      CHANNELS 3 Zrotation Xrotation Yrotation
      JOINT left_tibia_foot
      {
        OFFSET -4.370144 -48.10324 -4.275266
        CHANNELS 3 Zrotation Xrotation Yrotation
        End Site
        {
          OFFSET 0 -5 15
        }
      }
    }
  }
  JOINT pelvis_spine1
  {
    OFFSET 0 6.468898 -3.129235
    CHANNELS 3 Zrotation Xrotation Yrotation
    JOINT spine1
    {
      OFFSET 0 23.15396 4.99043
      CHANNELS 3 Zrotation Xrotation Yrotation
      JOINT spine2
      {
        OFFSET 0 20.79997 -5.064912
        CHANNELS 3 Zrotation Xrotation Yrotation
        JOINT neck
        {
          OFFSET 0 14.38658 9.616178
          CHANNELS 3 Zrotation Xrotation Yrotation
          End Site
          {
            OFFSET 0 20 0
          }
        }
      }
      JOINT right_manubrium
      {
        OFFSET -5.722621 16.35077 3.967754
        CHANNELS 3 Zrotation Xrotation Yrotation
        JOINT right_clavicle
        {
          OFFSET -13.16364 1.694482 -4.693211
          CHANNELS 3 Zrotation Xrotation Yrotation
          JOINT right_humerus
          {
            OFFSET -28.5034 -0.3100689 -2.792744
            CHANNELS 3 Zrotation Xrotation Yrotation
            JOINT right_radius
            {
              OFFSET -25.15693 0.02248979 -1.271978
              CHANNELS 3 Zrotation Xrotation Yrotation
              End Site
              {
                OFFSET -15 0 0
              }
            }
          }
        }
      }
      JOINT left_manubrium
      {
        OFFSET 5.722621 16.35077 3.967754
        CHANNELS 3 Zrotation Xrotation Yrotation
        JOINT left_clavicle
        {
          OFFSET 13.16364 1.694482 -4.693211
          CHANNELS 3 Zrotation Xrotation Yrotation
          JOINT left_humerus
          {
            OFFSET 29.39168 -1.063119 -2.237045
            CHANNELS 3 Zrotation Xrotation Yrotation
            JOINT left_radius
            {
              OFFSET 24.59957 -0.9528479 0.9047498
              CHANNELS 3 Zrotation Xrotation Yrotation
              End Site
              {
                OFFSET 15 -0 -0
              }
            }
          }
        }
      }
    }
  }
}
MOTION
Frames: 23
Frame Time: 0.0416666666667
0 103.5113 0 1.360101 -3.342757 0.3436502 1.321748 -10.76258 6.713652 -0 40.93401 -0 -6.67679 -15.74202 -3.543879 -6.650968 11.88617 -24.46991 -0 5.534039 -0 0.2802794 -19.39792 23.4962 -1.761962 -1.879366 3.559307 0.7327112 6.752248 -7.527535 1.723654 22.52981 8.076493 5.116333 -23.4415 9.163036 5.401499 -18.29035 10.10809 88.80994 36.34274 -23.75778 -0 0 15.82804 -7.938581 8.806351 2.607582 6.674896 -20.50189 -2.759783 -98.19345 43.16764 24.69265 0 0 -26.12652 -10.45765 17.52901 27.60203
0.1461579 103.6347 1.276845 0.9335723 -2.243158 0.566831 1.859885 -13.27904 7.564525 -0 42.37275 -0 -6.89543 -16.08336 -4.047729 -6.45274 12.50616 -25.06529 -0 5.676685 -0 -1.285827 -20.71074 22.99542 -1.445087 -1.774077 3.734952 0.5877544 6.976807 -7.492958 1.748178 22.43037 8.095152 5.170607 -23.27834 9.139572 5.466627 -18.17707 10.10016 89.00067 36.55406 -23.95361 -0 0 15.55917 -8.227477 9.260283 2.604093 6.830486 -20.79136 -2.729057 -97.99515 42.73111 24.59702 0 0 -26.35228 -9.883284 17.54552 27.35405
0.2661814 103.5311 2.892941 0.09939705 -1.613039 0.6489419 3.175042 -18.92081 6.464312 -0 38.34243 -0 -7.068619 -13.2356 -3.61292 -5.724353 13.14855 -23.84435 -0 5.756674 -0 -1.386637 -21.89635 22.04469 -2.331634 -1.859426 3.71629 1.235019 6.740602 -7.390582 1.342085 22.70305 7.957434 4.663115 -23.85605 8.997771 5.581406 -18.26797 10.38145 87.38865 36.417 -21.98561 -0 0 15.58811 -8.181378 8.483511 3.963012 6.087957 -19.83161 -2.603913 -97.30922 41.02169 24.32265 0 0 -24.53885 -8.166667 16.9225 24.55447
0.3853493 103.2849 4.797333 -0.5162769 -0.5113197 0.6671869 4.294123 -23.8805 6.146699 -0 34.66707 -0 -6.987256 -11.34688 -3.444255 -5.33644 13.45532 -22.73234 -0 5.92006 -0 -1.29591 -22.90249 21.15905 -2.799246 -1.887076 3.571703 1.660314 6.55442 -7.415914 1.137292 22.81512 7.891727 4.401221 -24.23393 8.924303 5.634711 -18.25683 10.55454 86.63284 36.15755 -21.1234 -0 0 15.5659 -8.024075 8.005946 4.624167 5.65626 -19.28913 -2.540473 -96.95433 40.26369 24.08614 0 0 -23.57209 -7.589156 16.57257 23.33984
0.5248481 102.835 7.107979 -0.9646065 0.789833 0.667425 5.341669 -28.78554 5.796571 -0 29.62521 -0 -6.643518 -9.303688 -3.15192 -5.151591 13.60523 -21.32432 -0 6.216494 -0 -0.644946 -23.76697 20.29075 -3.066924 -1.900239 3.413167 1.969022 6.41529 -7.482719 1.017812 22.86266 7.85068 4.234959 -24.50618 8.887042 5.673181 -18.21026 10.67222 86.24768 35.9055 -20.74177 -0 0 15.51603 -7.815923 7.689867 4.981327 5.38178 -18.9519 -2.497332 -96.7489 39.8663 23.90346 0 0 -22.99864 -7.368669 16.38122 22.72057
0.687552 102.1687 9.910257 -1.198645 1.951838 0.7161799 6.061191 -32.66322 5.242029 -0 24.1834 -0 -6.236049 -7.126504 -2.737076 -5.124088 13.74404 -19.88019 -0 6.840533 -0 -0.08859489 -24.47774 19.31581 -3.259016 -1.858602 3.302338 2.189117 6.324079 -7.507034 0.9211194 22.90439 7.83018 4.125395 -24.66901 8.827082 5.69492 -18.15979 10.77064 85.91075 35.759 -20.34586 -0 0 15.42537 -7.85557 7.532416 5.337775 5.137999 -18.69579 -2.485927 -96.52298 39.49213 23.72678 0 0 -22.5148 -7.218317 16.15753 22.2885
0.8632931 101.3311 13.29293 -1.265328 2.831861 0.887354 6.424403 -35.20768 4.403174 -0 18.94155 -0 -5.941475 -4.831999 -2.211048 -5.173904 14.0537 -18.48796 -0 8.025644 -0 0.1301522 -24.89859 18.13964 -3.403324 -1.75608 3.282796 2.310275 6.304956 -7.456657 0.8324476 22.95174 7.825028 4.065436 -24.70562 8.72453 5.704455 -18.11952 10.85738 85.52912 35.75825 -19.78615 -0 0 15.29353 -8.241674 7.54248 5.777653 4.906429 -18.50507 -2.510716 -96.21742 39.00539 23.54014 0 0 -22.04815 -6.994608 15.8432 21.87338
1.033958 100.4362 17.31608 -1.28279 3.311184 1.232355 6.539664 -36.16635 3.399605 -0 14.83073 -0 -5.973322 -2.646211 -1.679239 -5.172509 14.6331 -17.21859 -0 10.06664 -0 -0.3274982 -24.7893 16.62778 -3.517927 -1.605233 3.370109 2.320394 6.359555 -7.319952 0.7542759 23.01095 7.830875 4.055321 -24.60479 8.578164 5.696545 -18.11072 10.92924 85.07321 35.90551 -19.01623 -0 0 15.16003 -8.99672 7.707132 6.310777 4.689274 -18.37181 -2.571068 -95.8473 38.41119 23.36609 0 0 -21.5843 -6.702514 15.43814 21.46951
1.183752 99.65198 22.00217 -1.396994 3.405145 1.740754 6.676832 -35.61616 2.524451 -0 12.52548 -0 -6.444093 -0.8962035 -1.282028 -5.010455 15.39587 -16.04742 -0 13.30726 -0 -1.514477 -23.80632 14.77642 -3.604484 -1.426892 3.573742 2.208816 6.481683 -7.095802 0.694912 23.07994 7.844518 4.093556 -24.36585 8.40017 5.66188 -18.15626 10.98035 84.54147 36.18952 -18.03987 -0 0 15.08026 -10.10479 8.017291 6.917562 4.503033 -18.29592 -2.651044 -95.45767 37.74527 23.24842 0 0 -21.13058 -6.365588 14.97491 21.10105
1.309691 99.14606 27.31328 -1.700283 3.1902 2.308666 7.05592 -33.84698 2.027381 -0 12.18182 -0 -7.303604 0.1382686 -1.138259 -4.652017 15.99082 -14.87094 -0 18.04732 -0 -3.162808 -21.65073 12.79131 -3.652199 -1.240559 3.891738 1.973769 6.653166 -6.791855 0.6633633 23.15049 7.866462 4.176058 -24.00254 8.211178 5.587335 -18.27435 11.00556 83.94584 36.59119 -16.88928 -0 0 15.10977 -11.53205 8.472798 7.568448 4.366715 -18.27701 -2.722268 -95.10506 37.05666 23.23746 0 0 -20.69876 -6.020716 14.50218 20.81053
1.424429 99.02928 33.13835 -2.154028 2.718944 2.759211 7.668754 -31.17771 1.919883 -0 13.27641 -0 -8.343324 0.3677224 -1.267699 -4.167603 15.8642 -13.56015 -0 24.44517 -0 -4.749051 -18.27551 11.0567 -3.633591 -1.055404 4.310875 1.626461 6.850147 -6.425026 0.6649389 23.20482 7.901629 4.295966 -23.54306 8.033672 5.460566 -18.46757 11.00383 83.30708 37.0889 -15.61826 -0 0 15.27956 -13.24362 9.093222 8.240961 4.298587 -18.31792 -2.747086 -94.82936 36.36971 23.36467 0 0 -20.30173 -5.686507 14.06761 20.62481
1.545622 99.33331 39.29857 -2.575025 1.96057 2.918199 8.266867 -27.76224 1.976036 -0 14.80527 -0 -9.287751 -0.09988648 -1.570024 -3.688305 14.46438 -12.0636 -0 32.39669 -0 -5.818428 -14.06909 9.926304 -3.509478 -0.8667473 4.804175 1.195705 7.048642 -6.023214 0.6981984 23.21561 7.95628 4.441942 -23.02721 7.883913 5.275133 -18.71607 10.98141 82.64956 37.65248 -14.29578 -0 0 15.58218 -15.21062 9.913508 8.935483 4.310252 -18.42285 -2.685735 -94.63434 35.66231 23.62306 0 0 -19.94764 -5.355325 13.70293 20.53955
1.678871 100.0376 45.57997 -2.720421 0.8417447 2.704647 8.521188 -23.55478 1.927792 -0 15.75969 -0 -9.923389 -1.084169 -1.894212 -3.317944 11.50208 -10.48945 -0 41.44814 -0 -6.262833 -9.812556 9.541157 -3.247224 -0.6623389 5.334193 0.7287768 7.231046 -5.622512 0.7532323 23.15284 8.030119 4.593764 -22.50057 7.764893 5.035641 -18.98302 10.95375 81.98928 38.23126 -12.98724 -0 0 15.97987 -17.39945 10.9566 9.685803 4.398822 -18.58676 -2.506581 -94.48473 34.86025 23.96758 0 0 -19.62636 -4.991171 13.41273 20.50401
1.811181 101.1012 51.78278 -2.423195 -0.6260047 2.177559 8.224549 -18.48097 1.685528 -0 15.57318 -0 -10.1697 -2.455665 -2.151854 -3.091889 7.084378 -9.069617 -0 50.68536 -0 -6.314353 -6.404159 9.828051 -2.852931 -0.4387227 5.864489 0.2838906 7.390366 -5.255396 0.8127141 22.99973 8.106347 4.718588 -22.00544 7.66329 4.759023 -19.23747 10.94326 81.31384 38.7472 -11.71724 -0 0 16.43995 -19.74489 12.18449 10.55273 4.53827 -18.77643 -2.20086 -94.32807 33.86332 24.34507 0 0 -19.29211 -4.540136 13.1695 20.41701
1.920768 102.4401 57.76483 -1.684333 -2.244521 1.500093 7.400378 -12.69027 1.38447 -0 14.26749 -0 -10.04348 -4.129739 -2.341018 -2.983781 1.609074 -7.996719 -0 58.60346 -0 -6.285421 -4.474486 10.61066 -2.394281 -0.2173142 6.375465 -0.08799883 7.531677 -4.935056 0.8578394 22.76755 8.148065 4.775537 -21.56985 7.553813 4.468701 -19.48213 10.97118 80.5757 39.10492 -10.44345 -0 0 16.97457 -22.12602 13.46391 11.58875 4.680193 -18.92271 -1.796072 -94.13068 32.59879 24.73531 0 0 -18.86566 -3.953731 12.91947 20.14954
1.994685 103.8602 63.46196 -0.684914 -3.664114 0.8439222 6.273578 -6.671269 1.208249 -0 12.27769 -0 -9.575158 -5.975907 -2.430022 -2.872596 -4.471726 -7.257528 -0 63.19844 -0 -6.321927 -4.074498 11.70298 -1.980761 -0.04159707 6.869851 -0.3635809 7.669775 -4.651203 0.8785042 22.49237 8.110918 4.733564 -21.20059 7.411519 4.183854 -19.75732 11.04717 79.72563 39.21811 -9.08982 -0 0 17.64285 -24.37641 14.59892 12.78668 4.772827 -18.94571 -1.353775 -93.89964 31.07528 25.16144 0 0 -18.272 -3.224823 12.60348 19.60797
2.044067 105.0484 68.88356 0.261506 -4.545309 0.3093691 5.181815 -1.082219 1.191051 -0 10.15522 -0 -8.799441 -7.848483 -2.277018 -2.501889 -10.74673 -6.597571 -0 62.68384 -0 -6.380371 -4.646664 12.95931 -1.703568 0.04852339 7.359131 -0.5535439 7.821857 -4.384366 0.8804357 22.21246 7.968646 4.592251 -20.88696 7.226011 3.9129 -20.10815 11.16443 78.76869 39.03852 -7.629357 -0 0 18.50139 -26.33979 15.42834 14.05889 4.789534 -18.80186 -0.94407 -93.67229 29.39654 25.65398 0 0 -17.48922 -2.413361 12.18596 18.80408
2.105608 105.6895 74.0921 0.8269363 -4.735061 -0.09196024 4.46582 3.599987 1.234861 -0 8.346661 -0 -7.807094 -9.77028 -1.785979 -1.582316 -16.73944 -5.670005 -0 56.63965 -0 -6.371418 -5.399437 14.28923 -1.591106 0.04046574 7.845771 -0.6886394 7.998195 -4.123048 0.8810176 21.94888 7.729497 4.384234 -20.61241 7.006404 3.657162 -20.54746 11.30435 77.77558 38.57062 -6.123665 -0 0 19.55292 -27.93272 15.90205 15.27852 4.740373 -18.50667 -0.6147347 -93.48845 27.71659 26.21141 0 0 -16.55881 -1.627172 11.67056 17.85799
2.225901 105.619 79.19098 0.8448701 -4.344813 -0.4078677 4.29375 7.310297 1.278611 -0 7.114952 -0 -6.712162 -11.94656 -1.100026 -0.04177311 -21.90029 -4.315284 -0 46.52222 -0 -6.264743 -5.825523 15.63309 -1.62075 -0.05211725 8.320609 -0.7984754 8.199684 -3.866781 0.8969845 21.7069 7.427034 4.154736 -20.36362 6.772779 3.419776 -21.05172 11.44711 76.83377 37.85996 -4.675896 -0 0 20.74406 -29.15411 16.06461 16.34258 4.654765 -18.11138 -0.3833617 -93.37174 26.17026 26.79979 0 0 -15.54826 -0.9652948 11.0866 16.92046
2.445881 104.8759 84.33436 0.4199702 -3.670276 -0.7104088 4.509007 10.32329 1.353872 -0 6.597061 -0 -5.573769 -14.42409 -0.48863 1.789447 -25.8189 -2.780802 -0 34.96496 -0 -6.099134 -5.894472 16.91464 -1.759055 -0.2052789 8.769332 -0.8991637 8.424667 -3.620695 0.9359356 21.48991 7.098998 3.940115 -20.13257 6.544232 3.212089 -21.57981 11.57995 76.00757 36.96556 -3.375014 -0 0 21.9905 -30.03467 15.9838 17.19362 4.5552 -17.66748 -0.2551449 -93.32596 24.83878 27.37263 0 0 -14.51363 -0.4800235 10.46237 16.09835
2.79922 103.6487 89.72549 -0.1310097 -3.026666 -1.07108 4.688311 12.98937 1.511494 -0 6.953467 -0 -4.414937 -16.72562 -0.093546 3.266751 -28.36717 -1.637661 -0 24.63796 -0 -5.932034 -5.846466 18.02642 -1.984668 -0.3937172 9.172157 -0.9919788 8.675006 -3.394275 0.9959301 21.31025 6.777776 3.762903 -19.91559 6.335102 3.055985 -22.08248 11.6986 75.34395 35.9474 -2.293518 -0 0 23.18245 -30.58812 15.70588 17.80041 4.445019 -17.21565 -0.2419938 -93.33648 23.76589 27.87468 0 0 -13.49737 -0.1838136 9.814377 15.4447
3.313796 102.1965 95.56764 -0.451314 -2.635449 -1.528185 4.38887 15.49166 1.79288 -0 8.489883 -0 -3.271504 -17.89848 0.1102975 3.764037 -29.60971 -1.409578 -0 17.45468 -0 -5.750407 -5.911156 18.87516 -2.285478 -0.5897244 9.498422 -1.066447 8.954155 -3.204533 1.068331 21.18977 6.493562 3.63683 -19.71216 6.157748 2.982049 -22.49946 11.80457 74.88843 34.87663 -1.506366 -0 0 24.17678 -30.81149 15.26288 18.14394 4.312071 -16.79437 -0.363738 -93.36962 22.98203 28.23284 0 0 -12.5461 -0.07151086 9.157048 14.98417
4.003634 100.8026 101.9829 -0.3120074 -2.591014 -2.046962 3.393748 17.72441 2.245284 -0 11.65904 -0 -2.191988 -17.01336 0.1657265 3.007558 -29.63581 -2.224602 -0 14.18694 -0 -5.423996 -6.180221 19.42614 -2.646205 -0.7626992 9.70675 -1.104043 9.261018 -3.077382 1.140671 21.1503 6.275935 3.569089 -19.52388 6.023867 3.021693 -22.76225 11.90195 74.68205 33.84263 -1.090634 -0 0 24.81217 -30.71835 14.70137 18.22659 4.139803 -16.4458 -0.6342094 -93.37241 22.50361 28.35747 0 0 -11.72109 -0.1306048 8.516089 14.72842
